<?xml version="1.0" encoding="UTF-8"?>
<svg width="68px" height="68px" viewBox="0 0 68 68" version="1.1" xmlns="http://www.w3.org/2000/svg" xmlns:xlink="http://www.w3.org/1999/xlink">
    <!-- Generator: Sketch 57 (83077) - https://sketch.com -->
    <title>07_00_Prices</title>
    <desc>Created with Sketch.</desc>
    <g id="07_00_Prices" stroke="none" stroke-width="1" fill="none" fill-rule="evenodd">
        <g id="Group-21" transform="translate(4.000000, 6.000000)">
            <polygon id="Stroke-1" stroke="#028383" stroke-width="1.5" points="51.7491 10.2389 51.4741 27.4689 24.8311 54.1109 0.0611 29.3409 27.4741 1.9269 42.9961 1.4869"></polygon>
            <polygon id="Stroke-3" stroke="#028383" stroke-width="1.5" points="43.3751 16.1656 36.5271 9.3186 39.9531 5.8936 46.8011 12.7406"></polygon>
            <g id="Group-20" transform="translate(3.000000, 0.398300)">
                <path d="M40.2823,8.5251 C41.6923,6.1931 44.2533,4.6331 47.1773,4.6331 C51.6233,4.6331 55.2263,8.2381 55.2263,12.6841 C55.2263,16.6541 52.3523,19.9531 48.5713,20.6141" id="Stroke-4" stroke="#028383" stroke-width="1.321"></path>
                <path d="M29.5596,25.8679 C30.6206,24.4499 30.3306,22.4419 28.9136,21.3809 C28.8996,21.3709 28.8846,21.3599 28.8716,21.3489 C27.0066,20.0019 24.4036,21.5639 24.5206,23.8609 L24.8526,30.3779 C24.9126,31.5439 24.2596,32.6569 23.1806,33.1029 C21.8646,33.6489 20.3006,33.5059 19.0776,32.5899 C17.2306,31.2079 16.8536,28.5909 18.2356,26.7439" id="Stroke-6" stroke="#028383" stroke-width="1.5"></path>
                <path d="M29.6163,21.9167 L31.4703,20.0627" id="Stroke-8" stroke="#028383" stroke-width="1.5"></path>
                <path d="M17.0489,34.4851 L18.9029,32.6311" id="Stroke-10" stroke="#028383" stroke-width="1.5"></path>
                <path d="M32.9659,36.4871 C27.8079,41.6451 19.4449,41.6451 14.2859,36.4871 C9.1279,31.3291 9.1279,22.9651 14.2859,17.8061 C19.4449,12.6481 27.8079,12.6481 32.9659,17.8061 C38.1249,22.9651 38.1249,31.3291 32.9659,36.4871 Z" id="Stroke-12" stroke="#DA3701" stroke-width="1.5"></path>
                <path d="M19.1465,0.1316 L0.1145,19.1636" id="Stroke-14" stroke="#DA3701" stroke-width="1.5"></path>
                <path d="M56.5772,24.7927 L37.5452,43.8247" id="Stroke-16" stroke="#DA3701" stroke-width="1.5"></path>
                <path d="M52.795,35.4373 L33.763,54.4693" id="Stroke-18" stroke="#DA3701" stroke-width="1.5"></path>
            </g>
        </g>
    </g>
</svg>